<?xml version="1.0" encoding="utf-8"?>
<!-- Generator: Adobe Illustrator 26.3.1, SVG Export Plug-In . SVG Version: 6.00 Build 0)  -->
<svg version="1.1" xmlns="http://www.w3.org/2000/svg" xmlns:xlink="http://www.w3.org/1999/xlink" x="0px" y="0px"
	 viewBox="0 0 1920 1080" style="enable-background:new 0 0 1920 1080;" xml:space="preserve">
<style type="text/css">
	.st0{display:none;}
	.st1{display:inline;}
	.st2{fill:url(#SVGID_1_);}
	.st3{clip-path:url(#SVGID_00000075883770508633320090000007356134986215007372_);}
	.st4{clip-path:url(#SVGID_00000093173838973238423710000007767279620831517068_);}
	.st5{fill:#010101;}
	.st6{fill:#020202;}
	.st7{fill:#030303;}
	.st8{fill:#040404;}
	.st9{fill:#050505;}
	.st10{fill:#060606;}
	.st11{fill:#070707;}
	.st12{fill:#080808;}
	.st13{fill:#090909;}
	.st14{fill:#0A0A0A;}
	.st15{fill:#0B0B0B;}
	.st16{fill:#0C0C0C;}
	.st17{fill:#0D0D0D;}
	.st18{fill:#0E0E0E;}
	.st19{fill:#0F0F0F;}
	.st20{fill:#101010;}
	.st21{fill:#111111;}
	.st22{fill:#121212;}
	.st23{fill:#131313;}
	.st24{fill:#141414;}
	.st25{fill:#151515;}
	.st26{fill:#161616;}
	.st27{fill:#171717;}
	.st28{fill:#181818;}
	.st29{fill:#191919;}
	.st30{fill:#1A1A1A;}
	.st31{fill:#1B1B1B;}
	.st32{fill:#1C1C1C;}
	.st33{fill:#1D1D1D;}
	.st34{fill:#1E1E1E;}
	.st35{fill:#1F1F1F;}
	.st36{fill:#202020;}
	.st37{fill:#212121;}
	.st38{fill:#222222;}
	.st39{fill:#232323;}
	.st40{fill:#242424;}
	.st41{fill:#252525;}
	.st42{fill:#262626;}
	.st43{fill:#272727;}
	.st44{fill:#282828;}
	.st45{fill:#292929;}
	.st46{fill:#2A2A2A;}
	.st47{fill:#2B2B2B;}
	.st48{fill:#2C2C2C;}
	.st49{fill:#2D2D2D;}
	.st50{fill:#2E2E2E;}
	.st51{fill:#2F2F2F;}
	.st52{fill:#303030;}
	.st53{fill:#313131;}
	.st54{fill:#323232;}
	.st55{fill:#333333;}
	.st56{fill:#343434;}
	.st57{fill:#353535;}
	.st58{fill:#363636;}
	.st59{fill:#373737;}
	.st60{fill:#383838;}
	.st61{fill:#393939;}
	.st62{fill:#3A3A3A;}
	.st63{fill:#3B3B3B;}
	.st64{fill:#3C3C3C;}
	.st65{fill:#3D3D3D;}
	.st66{fill:#3E3E3E;}
	.st67{fill:#3F3F3F;}
	.st68{fill:#404040;}
	.st69{fill:#414141;}
	.st70{fill:#424242;}
	.st71{fill:#434343;}
	.st72{fill:#444444;}
	.st73{fill:#454545;}
	.st74{fill:#464646;}
	.st75{fill:#474747;}
	.st76{fill:#484848;}
	.st77{fill:#494949;}
	.st78{fill:#4A4A4A;}
	.st79{fill:#4B4B4B;}
	.st80{fill:#4C4C4C;}
	.st81{fill:#4D4D4D;}
	.st82{fill:#4E4E4E;}
	.st83{fill:#4F4F4F;}
	.st84{fill:#505050;}
	.st85{fill:#515151;}
	.st86{fill:#525252;}
	.st87{fill:#535353;}
	.st88{fill:#545454;}
	.st89{fill:#555555;}
	.st90{fill:#565656;}
	.st91{fill:#575757;}
	.st92{fill:#585858;}
	.st93{fill:#595959;}
	.st94{fill:#5A5A5A;}
	.st95{fill:#5B5B5B;}
	.st96{fill:#5C5C5C;}
	.st97{fill:#5D5D5D;}
	.st98{fill:#5E5E5E;}
	.st99{fill:#5F5F5F;}
	.st100{fill:#606060;}
	.st101{fill:#616161;}
	.st102{fill:#626262;}
	.st103{fill:#636363;}
	.st104{fill:#646464;}
	.st105{fill:#656565;}
	.st106{fill:#666666;}
	.st107{fill:#676767;}
	.st108{fill:#686868;}
	.st109{fill:#696969;}
	.st110{fill:#6A6A6A;}
	.st111{fill:#6B6B6B;}
	.st112{fill:#6C6C6C;}
	.st113{fill:#6D6D6D;}
	.st114{fill:#6E6E6E;}
	.st115{fill:#6F6F6F;}
	.st116{fill:#707070;}
	.st117{fill:#717171;}
	.st118{fill:#727272;}
	.st119{fill:#737373;}
	.st120{fill:#747474;}
	.st121{fill:#757575;}
	.st122{fill:#767676;}
	.st123{fill:#777777;}
	.st124{fill:#787878;}
	.st125{fill:#797979;}
	.st126{fill:#7A7A7A;}
	.st127{fill:#7B7B7B;}
	.st128{fill:#7C7C7C;}
	.st129{fill:#7D7D7D;}
	.st130{fill:#7E7E7E;}
	.st131{fill:#7F7F7F;}
	.st132{fill:#808080;}
	.st133{fill:#818181;}
	.st134{fill:#828282;}
	.st135{fill:#838383;}
	.st136{fill:#848484;}
	.st137{fill:#858585;}
	.st138{fill:#868686;}
	.st139{fill:#878787;}
	.st140{fill:#888888;}
	.st141{fill:#898989;}
	.st142{fill:#8A8A8A;}
	.st143{fill:#8B8B8B;}
	.st144{fill:#8C8C8C;}
	.st145{fill:#8D8D8D;}
	.st146{fill:#8E8E8E;}
	.st147{fill:#8F8F8F;}
	.st148{fill:#909090;}
	.st149{fill:#919191;}
	.st150{fill:#929292;}
	.st151{fill:#939393;}
	.st152{fill:#949494;}
	.st153{fill:#959595;}
	.st154{fill:#969696;}
	.st155{fill:#979797;}
	.st156{fill:#989898;}
	.st157{fill:#999999;}
	.st158{fill:#9A9A9A;}
	.st159{fill:#9B9B9B;}
	.st160{fill:#9C9C9C;}
	.st161{fill:#9D9D9D;}
	.st162{fill:#9E9E9E;}
	.st163{fill:#9F9F9F;}
	.st164{fill:#A0A0A0;}
	.st165{fill:#A1A1A1;}
	.st166{fill:#A2A2A2;}
	.st167{fill:#A3A3A3;}
	.st168{fill:#A4A4A4;}
	.st169{fill:#A5A5A5;}
	.st170{fill:#A6A6A6;}
	.st171{fill:#A7A7A7;}
	.st172{fill:#A8A8A8;}
	.st173{fill:#A9A9A9;}
	.st174{fill:#AAAAAA;}
	.st175{fill:#ABABAB;}
	.st176{fill:#ACACAC;}
	.st177{fill:#ADADAD;}
	.st178{fill:#AEAEAE;}
	.st179{fill:#AFAFAF;}
	.st180{fill:#B0B0B0;}
	.st181{fill:#B1B1B1;}
	.st182{fill:#B2B2B2;}
	.st183{fill:#B3B3B3;}
	.st184{fill:#B4B4B4;}
	.st185{fill:#B5B5B5;}
	.st186{fill:#B6B6B6;}
	.st187{fill:#B7B7B7;}
	.st188{fill:#B8B8B8;}
	.st189{fill:#B9B9B9;}
	.st190{fill:#BABABA;}
	.st191{fill:#BBBBBB;}
	.st192{fill:#BCBCBC;}
	.st193{fill:#BDBDBD;}
	.st194{fill:#BEBEBE;}
	.st195{fill:#BFBFBF;}
	.st196{fill:#C0C0C0;}
	.st197{fill:#C1C1C1;}
	.st198{fill:#C2C2C2;}
	.st199{fill:#C3C3C3;}
	.st200{fill:#C4C4C4;}
	.st201{fill:#C5C5C5;}
	.st202{fill:#C6C6C6;}
	.st203{fill:#C7C7C7;}
	.st204{fill:#C8C8C8;}
	.st205{fill:#C9C9C9;}
	.st206{fill:#CACACA;}
	.st207{fill:#CBCBCB;}
	.st208{fill:#CCCCCC;}
	.st209{fill:#CDCDCD;}
	.st210{fill:#CECECE;}
	.st211{fill:#CFCFCF;}
	.st212{fill:#D0D0D0;}
	.st213{fill:#D1D1D1;}
	.st214{fill:#D2D2D2;}
	.st215{fill:#D3D3D3;}
	.st216{fill:#D4D4D4;}
	.st217{fill:#D5D5D5;}
	.st218{fill:#D6D6D6;}
	.st219{fill:#D7D7D7;}
	.st220{fill:#D8D8D8;}
	.st221{fill:#D9D9D9;}
	.st222{fill:#DADADA;}
	.st223{fill:#DBDBDB;}
	.st224{fill:#DCDCDC;}
	.st225{fill:#DDDDDD;}
	.st226{fill:#DEDEDE;}
	.st227{fill:#DFDFDF;}
	.st228{fill:#E0E0E0;}
	.st229{fill:#E1E1E1;}
	.st230{fill:#E2E2E2;}
	.st231{fill:#E3E3E3;}
	.st232{fill:#E4E4E4;}
	.st233{fill:#E5E5E5;}
	.st234{fill:#E6E6E6;}
	.st235{fill:#E7E7E7;}
	.st236{fill:#E8E8E8;}
	.st237{fill:#E9E9E9;}
	.st238{fill:#EAEAEA;}
	.st239{fill:#EBEBEB;}
	.st240{fill:#ECECEC;}
	.st241{fill:#EDEDED;}
	.st242{fill:#EEEEEE;}
	.st243{fill:#EFEFEF;}
	.st244{fill:#F0F0F0;}
	.st245{fill:#F1F1F1;}
	.st246{fill:#F2F2F2;}
	.st247{fill:#F3F3F3;}
	.st248{fill:#F4F4F4;}
	.st249{fill:#F5F5F5;}
	.st250{fill:#F6F6F6;}
	.st251{fill:#F7F7F7;}
	.st252{fill:#F8F8F8;}
	.st253{fill:#F9F9F9;}
	.st254{fill:#FAFAFA;}
	.st255{fill:#FBFBFB;}
	.st256{fill:#FCFCFC;}
	.st257{fill:#FDFDFD;}
	.st258{fill:#FEFEFE;}
	.st259{fill:#FFFFFF;}
</style>
<g id="Layer_1" class="st0">
	<g class="st1">
		<linearGradient id="SVGID_1_" gradientUnits="userSpaceOnUse" x1="0" y1="540" x2="1920" y2="540">
			<stop  offset="0" style="stop-color:#0F2611"/>
			<stop  offset="1" style="stop-color:#1D0C14"/>
		</linearGradient>
		<rect class="st2" width="1920" height="1080"/>
	</g>
</g>
<g id="Layer_2">
	<g>
		<defs>
			<rect id="SVGID_00000079472416707120886360000009144308196130412977_" x="359" y="289" width="1212" height="501"/>
		</defs>
		<clipPath id="SVGID_00000038410772029784279490000005251317727869072791_">
			<use xlink:href="#SVGID_00000079472416707120886360000009144308196130412977_"  style="overflow:visible;"/>
		</clipPath>
		<g style="clip-path:url(#SVGID_00000038410772029784279490000005251317727869072791_);">
			<defs>
				<rect id="SVGID_00000091727206681080310580000000971489766623837885_" x="359" y="289" width="1212" height="501"/>
			</defs>
			<clipPath id="SVGID_00000002366584714796288650000018143904920251259045_">
				<use xlink:href="#SVGID_00000091727206681080310580000000971489766623837885_"  style="overflow:visible;"/>
			</clipPath>
			<g style="clip-path:url(#SVGID_00000002366584714796288650000018143904920251259045_);">
				<g>
					<path d="M1434.5,654V426h-949v228H1434.5z M337.5,802V278h1245v524H337.5z"/>
					<path class="st5" d="M1434.8,654.3V425.7H485.2v228.5H1434.8z M337.8,801.7V278.3h1244.5v523.5H337.8z"/>
					<path class="st6" d="M1435,654.5V425.5H485v229.1H1435z M338,801.5V278.5H1582v522.9H338z"/>
					<path class="st7" d="M1435.3,654.8V425.2H484.7v229.6H1435.3z M338.3,801.2V278.8h1243.4v522.4H338.3z"/>
					<path class="st8" d="M1435.6,655.1V424.9H484.4v230.2H1435.6z M338.6,800.9V279.1h1242.8v521.8H338.6z"/>
					<path class="st9" d="M1435.9,655.4V424.6H484.1v230.7H1435.9z M338.9,800.6V279.4h1242.3v521.3H338.9z"/>
					<path class="st10" d="M1436.1,655.6V424.4H483.9v231.3H1436.1z M339.1,800.4V279.6h1241.7v520.7H339.1z"/>
					<path class="st11" d="M1436.4,655.9V424.1H483.6v231.8H1436.4z M339.4,800.1V279.9h1241.2v520.2H339.4z"/>
					<path class="st12" d="M1436.7,656.2V423.8H483.3v232.4H1436.7z M339.7,799.8V280.2h1240.6v519.6H339.7z"/>
					<path class="st13" d="M1437,656.5V423.5H483v232.9H1437z M340,799.5V280.5H1580v519.1H340z"/>
					<path class="st14" d="M1437.2,656.7V423.3H482.8v233.5H1437.2z M340.2,799.3V280.7h1239.5v518.5H340.2z"/>
					<path class="st15" d="M1437.5,657V423h-955v234H1437.5z M340.5,799V281h1239v518H340.5z"/>
					<path class="st16" d="M1437.8,657.3V422.7H482.2v234.6H1437.8z M340.8,798.7V281.3h1238.4v517.4H340.8z"/>
					<path class="st17" d="M1438.1,657.6V422.4H481.9v235.1H1438.1z M341.1,798.4V281.6h1237.9v516.9H341.1z"/>
					<path class="st18" d="M1438.3,657.8V422.2H481.7v235.7H1438.3z M341.3,798.2V281.8h1237.3v516.3H341.3z"/>
					<path class="st19" d="M1438.6,658.1V421.9H481.4v236.2H1438.6z M341.6,797.9V282.1h1236.8v515.8H341.6z"/>
					<path class="st20" d="M1438.9,658.4V421.6H481.1v236.8H1438.9z M341.9,797.6V282.4h1236.2v515.2H341.9z"/>
					<path class="st21" d="M1439.2,658.7V421.3H480.8v237.3H1439.2z M342.2,797.3V282.7h1235.7v514.7H342.2z"/>
					<path class="st22" d="M1439.4,658.9V421.1H480.6v237.9H1439.4z M342.4,797.1V282.9h1235.1v514.1H342.4z"/>
					<path class="st23" d="M1439.7,659.2V420.8H480.3v238.4H1439.7z M342.7,796.8V283.2h1234.6v513.6H342.7z"/>
					<path class="st24" d="M1440,659.5v-239H480v239H1440z M343,796.5v-513h1234v513H343z"/>
					<path class="st25" d="M1440.3,659.8V420.2H479.7v239.5H1440.3z M343.3,796.2V283.8h1233.5v512.5H343.3z"/>
					<path class="st26" d="M1440.5,660V420H479.5V660H1440.5z M343.5,796V284h1232.9V796H343.5z"/>
					<path class="st27" d="M1440.8,660.3V419.7H479.2v240.6H1440.8z M343.8,795.7V284.3h1232.4v511.4H343.8z"/>
					<path class="st28" d="M1441.1,660.6V419.4H478.9v241.2H1441.1z M344.1,795.4V284.6h1231.8v510.8H344.1z"/>
					<path class="st29" d="M1441.4,660.9V419.1H478.6v241.7H1441.4z M344.4,795.1V284.9h1231.3v510.3H344.4z"/>
					<path class="st30" d="M1441.6,661.1V418.9H478.4v242.3H1441.6z M344.6,794.9V285.1h1230.7v509.7H344.6z"/>
					<path class="st31" d="M1441.9,661.4V418.6H478.1v242.8H1441.9z M344.9,794.6V285.4h1230.2v509.2H344.9z"/>
					<path class="st32" d="M1442.2,661.7V418.3H477.8v243.4H1442.2z M345.2,794.3V285.7h1229.6v508.6H345.2z"/>
					<path class="st33" d="M1442.5,662V418H477.5V662H1442.5z M345.5,794V286h1229.1V794H345.5z"/>
					<path class="st34" d="M1442.7,662.2V417.8H477.3v244.5H1442.7z M345.7,793.8V286.2h1228.5v507.5H345.7z"/>
					<path class="st35" d="M1443,662.5v-245H477v245H1443z M346,793.5v-507h1228v507H346z"/>
					<path class="st36" d="M1443.3,662.8V417.2H476.7v245.6H1443.3z M346.3,793.2V286.8h1227.4v506.4H346.3z"/>
					<path class="st37" d="M1443.6,663.1V416.9H476.4v246.1H1443.6z M346.6,792.9V287.1h1226.9v505.9H346.6z"/>
					<path class="st38" d="M1443.8,663.3V416.7H476.2v246.7H1443.8z M346.8,792.7V287.3h1226.3v505.3H346.8z"/>
					<path class="st39" d="M1444.1,663.6V416.4H475.9v247.2H1444.1z M347.1,792.4V287.6h1225.8v504.8H347.1z"/>
					<path class="st40" d="M1444.4,663.9V416.1H475.6v247.8H1444.4z M347.4,792.1V287.9h1225.2v504.2H347.4z"/>
					<path class="st41" d="M1444.7,664.2V415.8H475.3v248.3H1444.7z M347.7,791.8V288.2h1224.7v503.7H347.7z"/>
					<path class="st42" d="M1444.9,664.4V415.6H475.1v248.9H1444.9z M347.9,791.6V288.4h1224.1v503.1H347.9z"/>
					<path class="st43" d="M1445.2,664.7V415.3H474.8v249.4H1445.2z M348.2,791.3V288.7h1223.6v502.6H348.2z"/>
					<path class="st44" d="M1445.5,665V415h-971v250H1445.5z M348.5,791V289h1223v502H348.5z"/>
					<path class="st45" d="M1445.8,665.3V414.7H474.2v250.5H1445.8z M348.8,790.7V289.3h1222.5v501.5H348.8z"/>
					<path class="st46" d="M1446,665.5V414.5H474v251.1H1446z M349,790.5V289.5H1571v500.9H349z"/>
					<path class="st47" d="M1446.3,665.8V414.2H473.7v251.6H1446.3z M349.3,790.2V289.8h1221.4v500.4H349.3z"/>
					<path class="st48" d="M1446.6,666.1V413.9H473.4v252.2H1446.6z M349.6,789.9V290.1h1220.8v499.8H349.6z"/>
					<path class="st49" d="M1446.9,666.4V413.6H473.1v252.7H1446.9z M349.9,789.6V290.4h1220.3v499.3H349.9z"/>
					<path class="st50" d="M1447.1,666.6V413.4H472.9v253.3H1447.1z M350.1,789.4V290.6h1219.7v498.7H350.1z"/>
					<path class="st51" d="M1447.4,666.9V413.1H472.6v253.8H1447.4z M350.4,789.1V290.9h1219.2v498.2H350.4z"/>
					<path class="st52" d="M1447.7,667.2V412.8H472.3v254.4H1447.7z M350.7,788.8V291.2h1218.6v497.6H350.7z"/>
					<path class="st53" d="M1448,667.5V412.5H472v254.9H1448z M351,788.5V291.5H1569v497.1H351z"/>
					<path class="st54" d="M1448.2,667.7V412.3H471.8v255.5H1448.2z M351.2,788.3V291.7h1217.5v496.5H351.2z"/>
					<path class="st55" d="M1448.5,668V412h-977v256H1448.5z M351.5,788V292h1217v496H351.5z"/>
					<path class="st56" d="M1448.8,668.3V411.7H471.2v256.5H1448.8z M351.8,787.7V292.3h1216.5v495.5H351.8z"/>
					<path class="st57" d="M1449,668.5V411.5H471v257.1H1449z M352,787.5V292.5H1568v494.9H352z"/>
					<path class="st58" d="M1449.3,668.8V411.2H470.7v257.6H1449.3z M352.3,787.2V292.8h1215.4v494.4H352.3z"/>
					<path class="st59" d="M1449.6,669.1V410.9H470.4v258.2H1449.6z M352.6,786.9V293.1h1214.8v493.8H352.6z"/>
					<path class="st60" d="M1449.9,669.4V410.6H470.1v258.7H1449.9z M352.9,786.6V293.4h1214.3v493.3H352.9z"/>
					<path class="st61" d="M1450.1,669.6V410.4H469.9v259.3H1450.1z M353.1,786.4V293.6h1213.7v492.7H353.1z"/>
					<path class="st62" d="M1450.4,669.9V410.1H469.6v259.8H1450.4z M353.4,786.1V293.9h1213.2v492.2H353.4z"/>
					<path class="st63" d="M1450.7,670.2V409.8H469.3v260.4H1450.7z M353.7,785.8V294.2h1212.6v491.6H353.7z"/>
					<path class="st64" d="M1451,670.5V409.5H469v260.9H1451z M354,785.5V294.5H1566v491.1H354z"/>
					<path class="st65" d="M1451.2,670.7V409.3H468.8v261.5H1451.2z M354.2,785.3V294.7h1211.5v490.5H354.2z"/>
					<path class="st66" d="M1451.5,671V409h-983v262H1451.5z M354.5,785V295h1211v490H354.5z"/>
					<path class="st67" d="M1451.8,671.3V408.7H468.2v262.6H1451.8z M354.8,784.7V295.3h1210.4v489.4H354.8z"/>
					<path class="st68" d="M1452.1,671.6V408.4H467.9v263.1H1452.1z M355.1,784.4V295.6h1209.9v488.9H355.1z"/>
					<path class="st69" d="M1452.3,671.8V408.2H467.7v263.7H1452.3z M355.3,784.2V295.8h1209.3v488.3H355.3z"/>
					<path class="st70" d="M1452.6,672.1V407.9H467.4v264.2H1452.6z M355.6,783.9V296.1h1208.8v487.8H355.6z"/>
					<path class="st71" d="M1452.9,672.4V407.6H467.1v264.8H1452.9z M355.9,783.6V296.4h1208.2v487.2H355.9z"/>
					<path class="st72" d="M1453.2,672.7V407.3H466.8v265.3H1453.2z M356.2,783.3V296.7h1207.7v486.7H356.2z"/>
					<path class="st73" d="M1453.4,672.9V407.1H466.6v265.9H1453.4z M356.4,783.1V296.9h1207.1v486.1H356.4z"/>
					<path class="st74" d="M1453.7,673.2V406.8H466.3v266.4H1453.7z M356.7,782.8V297.2h1206.6v485.6H356.7z"/>
					<path class="st75" d="M1454,673.5v-267H466v267H1454z M357,782.5v-485h1206v485H357z"/>
					<path class="st76" d="M1454.3,673.8V406.2H465.7v267.5H1454.3z M357.3,782.2V297.8h1205.5v484.5H357.3z"/>
					<path class="st77" d="M1454.5,674V406H465.5V674H1454.5z M357.5,782V298h1204.9V782H357.5z"/>
					<path class="st78" d="M1454.8,674.3V405.7H465.2v268.6H1454.8z M357.8,781.7V298.3h1204.4v483.4H357.8z"/>
					<path class="st79" d="M1455.1,674.6V405.4H464.9v269.2H1455.1z M358.1,781.4V298.6h1203.8v482.8H358.1z"/>
					<path class="st80" d="M1455.4,674.9V405.1H464.6v269.7H1455.4z M358.4,781.1V298.9h1203.3v482.3H358.4z"/>
					<path class="st81" d="M1455.6,675.1V404.9H464.4v270.3H1455.6z M358.6,780.9V299.1h1202.7v481.7H358.6z"/>
					<path class="st82" d="M1455.9,675.4V404.6H464.1v270.8H1455.9z M358.9,780.6V299.4h1202.2v481.2H358.9z"/>
					<path class="st83" d="M1456.2,675.7V404.3H463.8v271.4H1456.2z M359.2,780.3V299.7h1201.6v480.6H359.2z"/>
					<path class="st84" d="M1456.5,676V404H463.5V676H1456.5z M359.5,780V300h1201.1V780H359.5z"/>
					<path class="st85" d="M1456.7,676.2V403.8H463.3v272.5H1456.7z M359.7,779.8V300.2h1200.5v479.5H359.7z"/>
					<path class="st86" d="M1457,676.5v-273H463v273H1457z M360,779.5v-479h1200v479H360z"/>
					<path class="st87" d="M1457.3,676.8V403.2H462.7v273.6H1457.3z M360.3,779.2V300.8h1199.4v478.4H360.3z"/>
					<path class="st88" d="M1457.6,677.1V402.9H462.4v274.1H1457.6z M360.6,778.9V301.1h1198.9v477.9H360.6z"/>
					<path class="st89" d="M1457.8,677.3V402.7H462.2v274.7H1457.8z M360.8,778.7V301.3h1198.3v477.3H360.8z"/>
					<path class="st90" d="M1458.1,677.6V402.4H461.9v275.2H1458.1z M361.1,778.4V301.6h1197.8v476.8H361.1z"/>
					<path class="st91" d="M1458.4,677.9V402.1H461.6v275.8H1458.4z M361.4,778.1V301.9h1197.2v476.2H361.4z"/>
					<path class="st92" d="M1458.7,678.2V401.8H461.3v276.3H1458.7z M361.7,777.8V302.2h1196.7v475.7H361.7z"/>
					<path class="st93" d="M1458.9,678.4V401.6H461.1v276.9H1458.9z M361.9,777.6V302.4h1196.1v475.1H361.9z"/>
					<path class="st94" d="M1459.2,678.7V401.3H460.8v277.4H1459.2z M362.2,777.3V302.7h1195.6v474.6H362.2z"/>
					<path class="st95" d="M1459.5,679V401h-999v278H1459.5z M362.5,777V303h1195v474H362.5z"/>
					<path class="st96" d="M1459.8,679.3V400.7H460.2v278.5H1459.8z M362.8,776.7V303.3h1194.5v473.5H362.8z"/>
					<path class="st97" d="M1460,679.5V400.5H460v279.1H1460z M363,776.5V303.5H1557v472.9H363z"/>
					<path class="st98" d="M1460.3,679.8V400.2H459.7v279.6H1460.3z M363.3,776.2V303.8h1193.4v472.4H363.3z"/>
					<path class="st99" d="M1460.6,680.1V399.9H459.4v280.2H1460.6z M363.6,775.9V304.1h1192.8v471.8H363.6z"/>
					<path class="st100" d="M1460.9,680.4V399.6H459.1v280.7H1460.9z M363.9,775.6V304.4h1192.3v471.3H363.9z"/>
					<path class="st101" d="M1461.1,680.6V399.4H458.9v281.3H1461.1z M364.1,775.4V304.6h1191.7v470.7H364.1z"/>
					<path class="st102" d="M1461.4,680.9V399.1H458.6v281.8H1461.4z M364.4,775.1V304.9h1191.2v470.2H364.4z"/>
					<path class="st103" d="M1461.7,681.2V398.8H458.3v282.4H1461.7z M364.7,774.8V305.2h1190.6v469.6H364.7z"/>
					<path class="st104" d="M1462,681.5V398.5H458v282.9H1462z M365,774.5V305.5H1555v469.1H365z"/>
					<path class="st105" d="M1462.2,681.7V398.3H457.8v283.5H1462.2z M365.2,774.3V305.7h1189.5v468.5H365.2z"/>
					<path class="st106" d="M1462.5,682V398h-1005v284H1462.5z M365.5,774V306h1189v468H365.5z"/>
					<path class="st107" d="M1462.8,682.3V397.7H457.2v284.5H1462.8z M365.8,773.7V306.3h1188.5v467.5H365.8z"/>
					<path class="st108" d="M1463,682.5V397.5H457v285.1H1463z M366,773.5V306.5H1554v466.9H366z"/>
					<path class="st109" d="M1463.3,682.8V397.2H456.7v285.6H1463.3z M366.3,773.2V306.8h1187.4v466.4H366.3z"/>
					<path class="st110" d="M1463.6,683.1V396.9H456.4v286.2H1463.6z M366.6,772.9V307.1h1186.8v465.8H366.6z"/>
					<path class="st111" d="M1463.9,683.4V396.6H456.1v286.7H1463.9z M366.9,772.6V307.4h1186.3v465.3H366.9z"/>
					<path class="st112" d="M1464.1,683.6V396.4H455.9v287.3H1464.1z M367.1,772.4V307.6h1185.7v464.7H367.1z"/>
					<path class="st113" d="M1464.4,683.9V396.1H455.6v287.8H1464.4z M367.4,772.1V307.9h1185.2v464.2H367.4z"/>
					<path class="st114" d="M1464.7,684.2V395.8H455.3v288.4H1464.7z M367.7,771.8V308.2h1184.6v463.6H367.7z"/>
					<path class="st115" d="M1465,684.5V395.5H455v288.9H1465z M368,771.5V308.5H1552v463.1H368z"/>
					<path class="st116" d="M1465.2,684.7V395.3H454.8v289.5H1465.2z M368.2,771.3V308.7h1183.5v462.5H368.2z"/>
					<path class="st117" d="M1465.5,685V395h-1011v290H1465.5z M368.5,771V309h1183v462H368.5z"/>
					<path class="st118" d="M1465.8,685.3V394.7H454.2v290.6H1465.8z M368.8,770.7V309.3h1182.4v461.4H368.8z"/>
					<path class="st119" d="M1466.1,685.6V394.4H453.9v291.1H1466.1z M369.1,770.4V309.6h1181.9v460.9H369.1z"/>
					<path class="st120" d="M1466.3,685.8V394.2H453.7v291.7H1466.3z M369.3,770.2V309.8h1181.3v460.3H369.3z"/>
					<path class="st121" d="M1466.6,686.1V393.9H453.4v292.2H1466.6z M369.6,769.9V310.1h1180.8v459.8H369.6z"/>
					<path class="st122" d="M1466.9,686.4V393.6H453.1v292.8H1466.9z M369.9,769.6V310.4h1180.2v459.2H369.9z"/>
					<path class="st123" d="M1467.2,686.7V393.3H452.8v293.3H1467.2z M370.2,769.3V310.7h1179.7v458.7H370.2z"/>
					<path class="st124" d="M1467.4,686.9V393.1H452.6v293.9H1467.4z M370.4,769.1V310.9h1179.1v458.1H370.4z"/>
					<path class="st125" d="M1467.7,687.2V392.8H452.3v294.4H1467.7z M370.7,768.8V311.2h1178.6v457.6H370.7z"/>
					<path class="st126" d="M1468,687.5v-295H452v295H1468z M371,768.5v-457h1178v457H371z"/>
					<path class="st127" d="M1468.3,687.8V392.2H451.7v295.5H1468.3z M371.3,768.2V311.8h1177.5v456.5H371.3z"/>
					<path class="st128" d="M1468.5,688V392H451.5V688H1468.5z M371.5,768V312h1176.9V768H371.5z"/>
					<path class="st129" d="M1468.8,688.3V391.7H451.2v296.6H1468.8z M371.8,767.7V312.3h1176.4v455.4H371.8z"/>
					<path class="st130" d="M1469.1,688.6V391.4H450.9v297.2H1469.1z M372.1,767.4V312.6h1175.8v454.8H372.1z"/>
					<path class="st131" d="M1469.4,688.9V391.1H450.6v297.7H1469.4z M372.4,767.1V312.9h1175.3v454.3H372.4z"/>
					<path class="st132" d="M1469.6,689.1V390.9H450.4v298.3H1469.6z M372.6,766.9V313.1h1174.7v453.7H372.6z"/>
					<path class="st133" d="M1469.9,689.4V390.6H450.1v298.8H1469.9z M372.9,766.6V313.4h1174.2v453.2H372.9z"/>
					<path class="st134" d="M1470.2,689.7V390.3H449.8v299.4H1470.2z M373.2,766.3V313.7h1173.6v452.6H373.2z"/>
					<path class="st135" d="M1470.5,690V390H449.5V690H1470.5z M373.5,766V314h1173.1V766H373.5z"/>
					<path class="st136" d="M1470.7,690.2V389.8H449.3v300.5H1470.7z M373.7,765.8V314.2h1172.5v451.5H373.7z"/>
					<path class="st137" d="M1471,690.5v-301H449v301H1471z M374,765.5v-451h1172v451H374z"/>
					<path class="st138" d="M1471.3,690.8V389.2H448.7v301.6H1471.3z M374.3,765.2V314.8h1171.4v450.4H374.3z"/>
					<path class="st139" d="M1471.6,691.1V388.9H448.4v302.1H1471.6z M374.6,764.9V315.1h1170.9v449.9H374.6z"/>
					<path class="st140" d="M1471.8,691.3V388.7H448.2v302.7H1471.8z M374.8,764.7V315.3h1170.3v449.3H374.8z"/>
					<path class="st141" d="M1472.1,691.6V388.4H447.9v303.2H1472.1z M375.1,764.4V315.6h1169.8v448.8H375.1z"/>
					<path class="st142" d="M1472.4,691.9V388.1H447.6v303.8H1472.4z M375.4,764.1V315.9h1169.2v448.2H375.4z"/>
					<path class="st143" d="M1472.7,692.2V387.8H447.3v304.3H1472.7z M375.7,763.8V316.2h1168.7v447.7H375.7z"/>
					<path class="st144" d="M1472.9,692.4V387.6H447.1v304.9H1472.9z M375.9,763.6V316.4h1168.1v447.1H375.9z"/>
					<path class="st145" d="M1473.2,692.7V387.3H446.8v305.4H1473.2z M376.2,763.3V316.7h1167.6v446.6H376.2z"/>
					<path class="st146" d="M1473.5,693V387h-1027v306H1473.5z M376.5,763V317h1167v446H376.5z"/>
					<path class="st147" d="M1473.8,693.3V386.7H446.2v306.5H1473.8z M376.8,762.7V317.3h1166.5v445.5H376.8z"/>
					<path class="st148" d="M1474,693.5V386.5H446v307.1H1474z M377,762.5V317.5H1543v444.9H377z"/>
					<path class="st149" d="M1474.3,693.8V386.2H445.7v307.6H1474.3z M377.3,762.2V317.8h1165.4v444.4H377.3z"/>
					<path class="st150" d="M1474.6,694.1V385.9H445.4v308.2H1474.6z M377.6,761.9V318.1h1164.8v443.8H377.6z"/>
					<path class="st151" d="M1474.9,694.4V385.6H445.1v308.7H1474.9z M377.9,761.6V318.4h1164.3v443.3H377.9z"/>
					<path class="st152" d="M1475.1,694.6V385.4H444.9v309.3H1475.1z M378.1,761.4V318.6h1163.7v442.7H378.1z"/>
					<path class="st153" d="M1475.4,694.9V385.1H444.6v309.8H1475.4z M378.4,761.1V318.9h1163.2v442.2H378.4z"/>
					<path class="st154" d="M1475.7,695.2V384.8H444.3v310.4H1475.7z M378.7,760.8V319.2h1162.6v441.6H378.7z"/>
					<path class="st155" d="M1476,695.5V384.5H444v310.9H1476z M379,760.5V319.5H1541v441.1H379z"/>
					<path class="st156" d="M1476.2,695.7V384.3H443.8v311.5H1476.2z M379.2,760.3V319.7h1161.5v440.5H379.2z"/>
					<path class="st157" d="M1476.5,696V384h-1033v312H1476.5z M379.5,760V320h1161v440H379.5z"/>
					<path class="st158" d="M1476.8,696.3V383.7H443.2v312.5H1476.8z M379.8,759.7V320.3h1160.5v439.5H379.8z"/>
					<path class="st159" d="M1477,696.5V383.5H443v313.1H1477z M380,759.5V320.5H1540v438.9H380z"/>
					<path class="st160" d="M1477.3,696.8V383.2H442.7v313.6H1477.3z M380.3,759.2V320.8h1159.4v438.4H380.3z"/>
					<path class="st161" d="M1477.6,697.1V382.9H442.4v314.2H1477.6z M380.6,758.9V321.1h1158.8v437.8H380.6z"/>
					<path class="st162" d="M1477.9,697.4V382.6H442.1v314.7H1477.9z M380.9,758.6V321.4h1158.3v437.3H380.9z"/>
					<path class="st163" d="M1478.1,697.6V382.4H441.9v315.3H1478.1z M381.1,758.4V321.6h1157.7v436.7H381.1z"/>
					<path class="st164" d="M1478.4,697.9V382.1H441.6v315.8H1478.4z M381.4,758.1V321.9h1157.2v436.2H381.4z"/>
					<path class="st165" d="M1478.7,698.2V381.8H441.3v316.4H1478.7z M381.7,757.8V322.2h1156.6v435.6H381.7z"/>
					<path class="st166" d="M1479,698.5V381.5H441v316.9H1479z M382,757.5V322.5H1538v435.1H382z"/>
					<path class="st167" d="M1479.2,698.7V381.3H440.8v317.5H1479.2z M382.2,757.3V322.7h1155.5v434.5H382.2z"/>
					<path class="st168" d="M1479.5,699V381h-1039v318H1479.5z M382.5,757V323h1155v434H382.5z"/>
					<path class="st169" d="M1479.8,699.3V380.7H440.2v318.6H1479.8z M382.8,756.7V323.3h1154.4v433.4H382.8z"/>
					<path class="st170" d="M1480.1,699.6V380.4H439.9v319.1H1480.1z M383.1,756.4V323.6h1153.9v432.9H383.1z"/>
					<path class="st171" d="M1480.3,699.8V380.2H439.7v319.7H1480.3z M383.3,756.2V323.8h1153.3v432.3H383.3z"/>
					<path class="st172" d="M1480.6,700.1V379.9H439.4v320.2H1480.6z M383.6,755.9V324.1h1152.8v431.8H383.6z"/>
					<path class="st173" d="M1480.9,700.4V379.6H439.1v320.8H1480.9z M383.9,755.6V324.4h1152.2v431.2H383.9z"/>
					<path class="st174" d="M1481.2,700.7V379.3H438.8v321.3H1481.2z M384.2,755.3V324.7h1151.7v430.7H384.2z"/>
					<path class="st175" d="M1481.4,700.9V379.1H438.6v321.9H1481.4z M384.4,755.1V324.9h1151.1v430.1H384.4z"/>
					<path class="st176" d="M1481.7,701.2V378.8H438.3v322.4H1481.7z M384.7,754.8V325.2h1150.6v429.6H384.7z"/>
					<path class="st177" d="M1482,701.5v-323H438v323H1482z M385,754.5v-429h1150v429H385z"/>
					<path class="st178" d="M1482.3,701.8V378.2H437.7v323.5H1482.3z M385.3,754.2V325.8h1149.5v428.5H385.3z"/>
					<path class="st179" d="M1482.5,702V378H437.5V702H1482.5z M385.5,754V326h1148.9V754H385.5z"/>
					<path class="st180" d="M1482.8,702.3V377.7H437.2v324.6H1482.8z M385.8,753.7V326.3h1148.4v427.4H385.8z"/>
					<path class="st181" d="M1483.1,702.6V377.4H436.9v325.2H1483.1z M386.1,753.4V326.6h1147.8v426.8H386.1z"/>
					<path class="st182" d="M1483.4,702.9V377.1H436.6v325.7H1483.4z M386.4,753.1V326.9h1147.3v426.3H386.4z"/>
					<path class="st183" d="M1483.6,703.1V376.9H436.4v326.3H1483.6z M386.6,752.9V327.1h1146.7v425.7H386.6z"/>
					<path class="st184" d="M1483.9,703.4V376.6H436.1v326.8H1483.9z M386.9,752.6V327.4h1146.2v425.2H386.9z"/>
					<path class="st185" d="M1484.2,703.7V376.3H435.8v327.4H1484.2z M387.2,752.3V327.7h1145.6v424.6H387.2z"/>
					<path class="st186" d="M1484.5,704V376H435.5V704H1484.5z M387.5,752V328h1145.1V752H387.5z"/>
					<path class="st187" d="M1484.7,704.2V375.8H435.3v328.5H1484.7z M387.7,751.8V328.2h1144.5v423.5H387.7z"/>
					<path class="st188" d="M1485,704.5v-329H435v329H1485z M388,751.5v-423h1144v423H388z"/>
					<path class="st189" d="M1485.3,704.8V375.2H434.7v329.6H1485.3z M388.3,751.2V328.8h1143.4v422.4H388.3z"/>
					<path class="st190" d="M1485.6,705.1V374.9H434.4v330.1H1485.6z M388.6,750.9V329.1h1142.9v421.9H388.6z"/>
					<path class="st191" d="M1485.8,705.3V374.7H434.2v330.7H1485.8z M388.8,750.7V329.3h1142.3v421.3H388.8z"/>
					<path class="st192" d="M1486.1,705.6V374.4H433.9v331.2H1486.1z M389.1,750.4V329.6h1141.8v420.8H389.1z"/>
					<path class="st193" d="M1486.4,705.9V374.1H433.6v331.8H1486.4z M389.4,750.1V329.9h1141.2v420.2H389.4z"/>
					<path class="st194" d="M1486.7,706.2V373.8H433.3v332.3H1486.7z M389.7,749.8V330.2h1140.7v419.7H389.7z"/>
					<path class="st195" d="M1486.9,706.4V373.6H433.1v332.9H1486.9z M389.9,749.6V330.4h1140.1v419.1H389.9z"/>
					<path class="st196" d="M1487.2,706.7V373.3H432.8v333.4H1487.2z M390.2,749.3V330.7h1139.6v418.6H390.2z"/>
					<path class="st197" d="M1487.5,707V373h-1055v334H1487.5z M390.5,749V331h1139v418H390.5z"/>
					<path class="st198" d="M1487.8,707.3V372.7H432.2v334.5H1487.8z M390.8,748.7V331.3h1138.5v417.5H390.8z"/>
					<path class="st199" d="M1488,707.5V372.5H432v335.1H1488z M391,748.5V331.5H1529v416.9H391z"/>
					<path class="st200" d="M1488.3,707.8V372.2H431.7v335.6H1488.3z M391.3,748.2V331.8h1137.4v416.4H391.3z"/>
					<path class="st201" d="M1488.6,708.1V371.9H431.4v336.2H1488.6z M391.6,747.9V332.1h1136.8v415.8H391.6z"/>
					<path class="st202" d="M1488.9,708.4V371.6H431.1v336.7H1488.9z M391.9,747.6V332.4h1136.3v415.3H391.9z"/>
					<path class="st203" d="M1489.1,708.6V371.4H430.9v337.3H1489.1z M392.1,747.4V332.6h1135.7v414.7H392.1z"/>
					<path class="st204" d="M1489.4,708.9V371.1H430.6v337.8H1489.4z M392.4,747.1V332.9h1135.2v414.2H392.4z"/>
					<path class="st205" d="M1489.7,709.2V370.8H430.3v338.4H1489.7z M392.7,746.8V333.2h1134.6v413.6H392.7z"/>
					<path class="st206" d="M1490,709.5V370.5H430v338.9H1490z M393,746.5V333.5H1527v413.1H393z"/>
					<path class="st207" d="M1490.2,709.7V370.3H429.8v339.5H1490.2z M393.2,746.3V333.7h1133.5v412.5H393.2z"/>
					<path class="st208" d="M1490.5,710V370h-1061v340H1490.5z M393.5,746V334h1133v412H393.5z"/>
					<path class="st209" d="M1490.8,710.3V369.7H429.2v340.5H1490.8z M393.8,745.7V334.3h1132.5v411.5H393.8z"/>
					<path class="st210" d="M1491,710.5V369.5H429v341.1H1491z M394,745.5V334.5H1526v410.9H394z"/>
					<path class="st211" d="M1491.3,710.8V369.2H428.7v341.6H1491.3z M394.3,745.2V334.8h1131.4v410.4H394.3z"/>
					<path class="st212" d="M1491.6,711.1V368.9H428.4v342.2H1491.6z M394.6,744.9V335.1h1130.8v409.8H394.6z"/>
					<path class="st213" d="M1491.9,711.4V368.6H428.1v342.7H1491.9z M394.9,744.6V335.4h1130.3v409.3H394.9z"/>
					<path class="st214" d="M1492.1,711.6V368.4H427.9v343.3H1492.1z M395.1,744.4V335.6h1129.7v408.7H395.1z"/>
					<path class="st215" d="M1492.4,711.9V368.1H427.6v343.8H1492.4z M395.4,744.1V335.9h1129.2v408.2H395.4z"/>
					<path class="st216" d="M1492.7,712.2V367.8H427.3v344.4H1492.7z M395.7,743.8V336.2h1128.6v407.6H395.7z"/>
					<path class="st217" d="M1493,712.5V367.5H427v344.9H1493z M396,743.5V336.5H1524v407.1H396z"/>
					<path class="st218" d="M1493.2,712.7V367.3H426.8v345.5H1493.2z M396.2,743.3V336.7h1127.5v406.5H396.2z"/>
					<path class="st219" d="M1493.5,713V367h-1067v346H1493.5z M396.5,743V337h1127v406H396.5z"/>
					<path class="st220" d="M1493.8,713.3V366.7H426.2v346.6H1493.8z M396.8,742.7V337.3h1126.4v405.4H396.8z"/>
					<path class="st221" d="M1494.1,713.6V366.4H425.9v347.1H1494.1z M397.1,742.4V337.6h1125.9v404.9H397.1z"/>
					<path class="st222" d="M1494.3,713.8V366.2H425.7v347.7H1494.3z M397.3,742.2V337.8h1125.3v404.3H397.3z"/>
					<path class="st223" d="M1494.6,714.1V365.9H425.4v348.2H1494.6z M397.6,741.9V338.1h1124.8v403.8H397.6z"/>
					<path class="st224" d="M1494.9,714.4V365.6H425.1v348.8H1494.9z M397.9,741.6V338.4h1124.2v403.2H397.9z"/>
					<path class="st225" d="M1495.2,714.7V365.3H424.8v349.3H1495.2z M398.2,741.3V338.7h1123.7v402.7H398.2z"/>
					<path class="st226" d="M1495.4,714.9V365.1H424.6v349.9H1495.4z M398.4,741.1V338.9h1123.1v402.1H398.4z"/>
					<path class="st227" d="M1495.7,715.2V364.8H424.3v350.4H1495.7z M398.7,740.8V339.2h1122.6v401.6H398.7z"/>
					<path class="st228" d="M1496,715.5v-351H424v351H1496z M399,740.5v-401h1122v401H399z"/>
					<path class="st229" d="M1496.3,715.8V364.2H423.7v351.5H1496.3z M399.3,740.2V339.8h1121.5v400.5H399.3z"/>
					<path class="st230" d="M1496.5,716V364H423.5V716H1496.5z M399.5,740V340h1120.9V740H399.5z"/>
					<path class="st231" d="M1496.8,716.3V363.7H423.2v352.6H1496.8z M399.8,739.7V340.3h1120.4v399.4H399.8z"/>
					<path class="st232" d="M1497.1,716.6V363.4H422.9v353.2H1497.1z M400.1,739.4V340.6h1119.8v398.8H400.1z"/>
					<path class="st233" d="M1497.4,716.9V363.1H422.6v353.7H1497.4z M400.4,739.1V340.9h1119.3v398.3H400.4z"/>
					<path class="st234" d="M1497.6,717.1V362.9H422.4v354.3H1497.6z M400.6,738.9V341.1h1118.7v397.7H400.6z"/>
					<path class="st235" d="M1497.9,717.4V362.6H422.1v354.8H1497.9z M400.9,738.6V341.4h1118.2v397.2H400.9z"/>
					<path class="st236" d="M1498.2,717.7V362.3H421.8v355.4H1498.2z M401.2,738.3V341.7h1117.6v396.6H401.2z"/>
					<path class="st237" d="M1498.5,718V362H421.5V718H1498.5z M401.5,738V342h1117.1V738H401.5z"/>
					<path class="st238" d="M1498.7,718.2V361.8H421.3v356.5H1498.7z M401.7,737.8V342.2h1116.5v395.5H401.7z"/>
					<path class="st239" d="M1499,718.5v-357H421v357H1499z M402,737.5v-395h1116v395H402z"/>
					<path class="st240" d="M1499.3,718.8V361.2H420.7v357.6H1499.3z M402.3,737.2V342.8h1115.4v394.4H402.3z"/>
					<path class="st241" d="M1499.6,719.1V360.9H420.4v358.1H1499.6z M402.6,736.9V343.1h1114.9v393.9H402.6z"/>
					<path class="st242" d="M1499.8,719.3V360.7H420.2v358.7H1499.8z M402.8,736.7V343.3h1114.3v393.3H402.8z"/>
					<path class="st243" d="M1500.1,719.6V360.4H419.9v359.2H1500.1z M403.1,736.4V343.6h1113.8v392.8H403.1z"/>
					<path class="st244" d="M1500.4,719.9V360.1H419.6v359.8H1500.4z M403.4,736.1V343.9h1113.2v392.2H403.4z"/>
					<path class="st245" d="M1500.7,720.2V359.8H419.3v360.3H1500.7z M403.7,735.8V344.2h1112.7v391.7H403.7z"/>
					<path class="st246" d="M1500.9,720.4V359.6H419.1v360.9H1500.9z M403.9,735.6V344.4h1112.1v391.1H403.9z"/>
					<path class="st247" d="M1501.2,720.7V359.3H418.8v361.4H1501.2z M404.2,735.3V344.7h1111.6v390.6H404.2z"/>
					<path class="st248" d="M1501.5,721V359h-1083v362H1501.5z M404.5,735V345h1111v390H404.5z"/>
					<path class="st249" d="M1501.8,721.3V358.7H418.2v362.5H1501.8z M404.8,734.7V345.3h1110.5v389.5H404.8z"/>
					<path class="st250" d="M1502,721.5V358.5H418v363.1H1502z M405,734.5V345.5H1515v388.9H405z"/>
					<path class="st251" d="M1502.3,721.8V358.2H417.7v363.6H1502.3z M405.3,734.2V345.8h1109.4v388.4H405.3z"/>
					<path class="st252" d="M1502.6,722.1V357.9H417.4v364.2H1502.6z M405.6,733.9V346.1h1108.8v387.8H405.6z"/>
					<path class="st253" d="M1502.9,722.4V357.6H417.1v364.7H1502.9z M405.9,733.6V346.4h1108.3v387.3H405.9z"/>
					<path class="st254" d="M1503.1,722.6V357.4H416.9v365.3H1503.1z M406.1,733.4V346.6h1107.7v386.7H406.1z"/>
					<path class="st255" d="M1503.4,722.9V357.1H416.6v365.8H1503.4z M406.4,733.1V346.9h1107.2v386.2H406.4z"/>
					<path class="st256" d="M1503.7,723.2V356.8H416.3v366.4H1503.7z M406.7,732.8V347.2h1106.6v385.6H406.7z"/>
					<path class="st257" d="M1504,723.5V356.5H416v366.9H1504z M407,732.5V347.5H1513v385.1H407z"/>
					<path class="st258" d="M1504.2,723.7V356.3H415.8v367.5H1504.2z M407.2,732.3V347.7h1105.5v384.5H407.2z"/>
					<path class="st259" d="M415.5,724h1089V356h-1089V724z M1512.5,732h-1105V348h1105V732z"/>
				</g>
			</g>
		</g>
	</g>
</g>
</svg>
